<svg width="24" height="25" viewBox="0 0 24 25" fill="none" xmlns="http://www.w3.org/2000/svg">
<path d="M21 14.7074L20.253 14.7714C20.2702 14.9635 20.3608 15.1416 20.5058 15.2687C20.6509 15.3957 20.8394 15.462 21.032 15.4538C21.2247 15.4456 21.4068 15.3634 21.5405 15.2244C21.6742 15.0854 21.7492 14.9003 21.75 14.7074L21 14.7074ZM3.764 12.8844L4.47 8.80444L2.991 8.54844L2.286 12.6284L3.764 12.8844ZM10.755 3.69144L15.404 3.69144L15.404 2.19144L10.755 2.19144L10.755 3.69144ZM16.315 4.52844L17.127 13.9214L18.622 13.7924L17.809 4.39944L16.315 4.52844ZM4.47 8.80444C4.977 5.87444 7.619 3.69144 10.755 3.69144L10.755 2.19144C6.929 2.19144 3.629 4.86044 2.991 8.54844L4.47 8.80444ZM10.745 19.8414L11.408 15.7964L9.928 15.5544L9.265 19.5984L10.745 19.8414ZM16.812 14.6954L15.373 15.9354L16.353 17.0714L17.79 15.8314L16.812 14.6954ZM12.756 19.9694L12.28 21.8034L13.732 22.1794L14.208 20.3464L12.756 19.9694ZM11.562 22.1634L11.417 22.1164L10.958 23.5444L11.103 23.5914L11.562 22.1634ZM13.477 18.1254C13.1648 18.7095 12.9228 19.3285 12.756 19.9694L14.208 20.3464C14.3458 19.8202 14.5445 19.3117 14.8 18.8314L13.477 18.1254ZM11.417 22.1164C11.2745 22.0728 11.1453 21.9941 11.0412 21.8875C10.937 21.7809 10.8613 21.6499 10.821 21.5064L9.369 21.8824C9.4719 22.2711 9.67161 22.6274 9.94947 22.9181C10.2273 23.2087 10.5743 23.4242 10.958 23.5444L11.417 22.1164ZM12.28 21.8034C12.2598 21.8753 12.2243 21.942 12.176 21.999C12.1276 22.0559 12.0676 22.1018 12 22.1334L12.651 23.4844C13.183 23.2284 13.583 22.7544 13.732 22.1794L12.28 21.8034ZM12 22.1334C11.863 22.1984 11.7065 22.2091 11.562 22.1634L11.103 23.5914C11.6137 23.7547 12.1676 23.7164 12.651 23.4844L12 22.1334ZM9.846 13.9574L4.666 13.9574L4.666 15.4574L9.846 15.4574L9.846 13.9574ZM19.281 3.53544L20.253 14.7714L21.747 14.6424L20.777 3.40644L19.281 3.53544ZM20.25 3.42844L20.25 14.7074L21.75 14.7074L21.75 3.42844L20.25 3.42844ZM20.777 3.40644C20.7801 3.44278 20.7745 3.47936 20.7627 3.51385C20.7508 3.54835 20.7319 3.58 20.7072 3.6068C20.6825 3.6336 20.6524 3.65497 20.619 3.66954C20.5856 3.68411 20.5495 3.69157 20.513 3.69144L20.513 2.19144C19.787 2.19144 19.219 2.81344 19.281 3.53544L20.777 3.40644ZM9.265 19.5984C9.13929 20.3587 9.17473 21.1368 9.369 21.8824L10.821 21.5054C10.6792 20.9623 10.6533 20.3953 10.745 19.8414L9.265 19.5984ZM15.404 3.69144C15.633 3.69183 15.8535 3.77798 16.0221 3.93291C16.1908 4.08784 16.2953 4.3003 16.315 4.52844L17.809 4.39944C17.757 3.79728 17.4811 3.23649 17.0359 2.82773C16.5907 2.41898 16.0084 2.19195 15.404 2.19144L15.404 3.69144ZM15.373 15.9354C14.693 16.5214 13.961 17.2184 13.476 18.1254L14.8 18.8314C15.146 18.1824 15.697 17.6354 16.353 17.0714L15.373 15.9354ZM2.286 12.6284C2.22579 12.9755 2.24219 13.3314 2.33403 13.6714C2.42587 14.0115 2.59093 14.3273 2.81767 14.5968C3.0444 14.8663 3.32732 15.083 3.6466 15.2316C3.96588 15.3803 4.3138 15.4574 4.666 15.4574L4.666 13.9574C4.099 13.9574 3.666 13.4454 3.764 12.8844L2.286 12.6284ZM20.513 3.69144C20.367 3.69144 20.25 3.57344 20.25 3.42844L21.75 3.42844C21.75 2.74644 21.197 2.19144 20.513 2.19144L20.513 3.69144ZM11.408 15.7964C11.4453 15.5699 11.4328 15.3379 11.3715 15.1166C11.3101 14.8953 11.2014 14.69 11.0528 14.515C10.9042 14.3399 10.7193 14.1993 10.5109 14.1028C10.3025 14.0064 10.0756 13.9574 9.846 13.9574L9.846 15.4574C9.8582 15.4574 9.87027 15.459 9.88133 15.4642C9.8924 15.4693 9.90219 15.4768 9.91002 15.4862C9.91785 15.4955 9.92352 15.5065 9.92663 15.5183C9.92974 15.5301 9.93021 15.5424 9.928 15.5544L11.408 15.7964ZM17.127 13.9214C17.1392 14.0662 17.1179 14.2119 17.063 14.3464C17.0081 14.4809 16.9221 14.6005 16.812 14.6954L17.792 15.8324C18.0819 15.5823 18.3082 15.267 18.4525 14.9123C18.5968 14.5577 18.6549 14.1739 18.622 13.7924L17.127 13.9214Z" fill="black"/>
</svg>
