<svg width="24" height="25" viewBox="0 0 24 25" fill="none" xmlns="http://www.w3.org/2000/svg">
<path d="M3 11.1754L3.747 11.1114C3.72978 10.9193 3.63924 10.7412 3.49416 10.6141C3.34909 10.4871 3.16064 10.4208 2.96796 10.429C2.77528 10.4372 2.59318 10.5194 2.45948 10.6584C2.32578 10.7974 2.25076 10.9825 2.25 11.1754H3ZM20.236 12.9984L19.53 17.0784L21.009 17.3344L21.714 13.2544L20.236 12.9984ZM13.245 22.1914H8.596V23.6914H13.245V22.1914ZM7.685 21.3544L6.873 11.9614L5.378 12.0904L6.191 21.4834L7.685 21.3544ZM19.53 17.0784C19.023 20.0084 16.381 22.1914 13.245 22.1914V23.6914C17.071 23.6914 20.371 21.0224 21.009 17.3344L19.53 17.0784ZM13.255 6.04137L12.592 10.0864L14.072 10.3284L14.735 6.28437L13.255 6.04137ZM7.188 11.1874L8.627 9.94737L7.647 8.81137L6.21 10.0514L7.188 11.1874ZM11.244 5.91337L11.72 4.07937L10.268 3.70337L9.792 5.53637L11.244 5.91337ZM12.438 3.71937L12.583 3.76637L13.042 2.33837L12.897 2.29137L12.438 3.71937ZM10.523 7.75737C10.8352 7.17328 11.0772 6.55431 11.244 5.91337L9.792 5.53637C9.65421 6.06266 9.45553 6.57109 9.2 7.05137L10.523 7.75737ZM12.583 3.76637C12.7255 3.81003 12.8547 3.88876 12.9588 3.99534C13.063 4.10191 13.1387 4.23293 13.179 4.37637L14.631 4.00037C14.5281 3.61167 14.3284 3.25538 14.0505 2.96475C13.7727 2.67411 13.4257 2.45862 13.042 2.33837L12.583 3.76637ZM11.72 4.07937C11.7402 4.00749 11.7757 3.9408 11.824 3.88386C11.8724 3.82691 11.9324 3.78104 12 3.74937L11.349 2.39837C10.817 2.65437 10.417 3.12837 10.268 3.70337L11.72 4.07937ZM12 3.74937C12.137 3.6844 12.2935 3.67368 12.438 3.71937L12.897 2.29137C12.3863 2.1281 11.8324 2.16639 11.349 2.39837L12 3.74937ZM14.154 11.9254H19.334V10.4254H14.154V11.9254ZM4.719 22.3474L3.747 11.1114L2.253 11.2404L3.223 22.4764L4.719 22.3474ZM3.75 22.4544V11.1754H2.25V22.4544H3.75ZM3.223 22.4764C3.21995 22.44 3.22549 22.4035 3.23733 22.369C3.24918 22.3345 3.26807 22.3028 3.2928 22.276C3.31753 22.2492 3.34757 22.2278 3.381 22.2133C3.41443 22.1987 3.45053 22.1912 3.487 22.1914V23.6914C4.213 23.6914 4.781 23.0694 4.719 22.3474L3.223 22.4764ZM14.735 6.28437C14.8607 5.52416 14.8253 4.74601 14.631 4.00037L13.179 4.37737C13.3208 4.92056 13.3467 5.48752 13.255 6.04137L14.735 6.28437ZM8.596 22.1914C8.36701 22.191 8.14648 22.1048 7.97785 21.9499C7.80923 21.795 7.70475 21.5825 7.685 21.3544L6.191 21.4834C6.24303 22.0855 6.51888 22.6463 6.96411 23.0551C7.40933 23.4638 7.99159 23.6909 8.596 23.6914V22.1914ZM8.627 9.94737C9.307 9.36137 10.039 8.66437 10.524 7.75737L9.2 7.05137C8.854 7.70037 8.303 8.24737 7.647 8.81137L8.627 9.94737ZM21.714 13.2544C21.7742 12.9074 21.7578 12.5514 21.666 12.2114C21.5741 11.8714 21.4091 11.5555 21.1823 11.286C20.9556 11.0165 20.6727 10.7998 20.3534 10.6512C20.0341 10.5025 19.6862 10.4254 19.334 10.4254V11.9254C19.901 11.9254 20.334 12.4374 20.236 12.9984L21.714 13.2544ZM3.487 22.1914C3.633 22.1914 3.75 22.3094 3.75 22.4544H2.25C2.25 23.1364 2.803 23.6914 3.487 23.6914V22.1914ZM12.592 10.0864C12.5547 10.313 12.5672 10.5449 12.6285 10.7662C12.6899 10.9875 12.7986 11.1928 12.9472 11.3678C13.0958 11.5429 13.2807 11.6835 13.4891 11.78C13.6975 11.8764 13.9244 11.9254 14.154 11.9254V10.4254C14.1418 10.4254 14.1297 10.4238 14.1187 10.4187C14.1076 10.4135 14.0978 10.406 14.09 10.3966C14.0821 10.3873 14.0765 10.3763 14.0734 10.3645C14.0703 10.3527 14.0698 10.3404 14.072 10.3284L12.592 10.0864ZM6.873 11.9614C6.8608 11.8166 6.88208 11.6709 6.937 11.5364C6.99193 11.4019 7.07794 11.2823 7.188 11.1874L6.208 10.0504C5.91814 10.3005 5.69177 10.6158 5.54748 10.9705C5.4032 11.3251 5.34511 11.7089 5.378 12.0904L6.873 11.9614Z" fill="black"/>
</svg>
