<svg width="4" height="16" viewBox="0 0 4 16" fill="none" xmlns="http://www.w3.org/2000/svg">
<path d="M0.500001 1.56641C0.500001 1.26974 0.587974 0.979726 0.752797 0.733052C0.917619 0.486378 1.15189 0.294119 1.42598 0.180588C1.70007 0.0670562 2.00166 0.0373512 2.29264 0.095229C2.58361 0.153107 2.85088 0.295968 3.06066 0.505747C3.27044 0.715526 3.4133 0.9828 3.47118 1.27377C3.52906 1.56474 3.49935 1.86634 3.38582 2.14043C3.27229 2.41452 3.08003 2.64879 2.83336 2.81361C2.58668 2.97843 2.29667 3.06641 2 3.06641C1.60218 3.06641 1.22065 2.90837 0.939341 2.62707C0.658036 2.34576 0.500001 1.96423 0.500001 1.56641ZM2 6.44141C1.70333 6.44141 1.41332 6.52938 1.16665 6.6942C0.919972 6.85903 0.727713 7.09329 0.614181 7.36738C0.50065 7.64147 0.470945 7.94307 0.528823 8.23404C0.586701 8.52501 0.729562 8.79229 0.939341 9.00207C1.14912 9.21185 1.41639 9.35471 1.70737 9.41259C1.99834 9.47046 2.29994 9.44076 2.57403 9.32723C2.84812 9.21369 3.08238 9.02144 3.24721 8.77476C3.41203 8.52809 3.5 8.23808 3.5 7.94141C3.5 7.54358 3.34197 7.16205 3.06066 6.88075C2.77936 6.59944 2.39783 6.44141 2 6.44141ZM2 12.8164C1.70333 12.8164 1.41332 12.9044 1.16665 13.0692C0.919972 13.234 0.727713 13.4683 0.614181 13.7424C0.50065 14.0165 0.470945 14.3181 0.528823 14.609C0.586701 14.9 0.729562 15.1673 0.939341 15.3771C1.14912 15.5868 1.41639 15.7297 1.70737 15.7876C1.99834 15.8455 2.29994 15.8158 2.57403 15.7022C2.84812 15.5887 3.08238 15.3964 3.24721 15.1498C3.41203 14.9031 3.5 14.6131 3.5 14.3164C3.5 13.9186 3.34197 13.5371 3.06066 13.2557C2.77936 12.9744 2.39783 12.8164 2 12.8164Z" fill="black"/>
</svg>
